<?xml version="1.0" encoding="utf-8"?>
<!-- Generator: Adobe Illustrator 26.2.1, SVG Export Plug-In . SVG Version: 6.00 Build 0)  -->
<svg version="1.1" id="Ebene_1" xmlns="http://www.w3.org/2000/svg" xmlns:xlink="http://www.w3.org/1999/xlink" x="0px" y="0px"
	 viewBox="0 0 579.1 512" style="enable-background:new 0 0 579.1 512;" xml:space="preserve">
<style type="text/css">
	.st0{fill:none;stroke:#000000;stroke-width:4.3734;stroke-miterlimit:10;}
	.st1{fill:#FFFFFF;stroke:#000000;stroke-width:4.4175;stroke-miterlimit:10;}
	.st2{stroke:#000000;stroke-width:1.0273;stroke-miterlimit:10;}
	.st3{fill:none;}
	.st4{stroke:#000000;stroke-width:1.0966;stroke-miterlimit:10;}
	.st5{stroke:#000000;stroke-width:1.0524;stroke-miterlimit:10;}
	.st6{fill:#1D1D1B;}
	.st7{font-family:'Raleway-Bold';}
	.st8{font-size:176.1442px;}
	.st9{font-size:177.9916px;}
</style>
<g>
	<g transform="translate(0.000000,512.000000) scale(0.100000,-0.100000)">
		<path d="M2268.2,3377.3c-83.7-12.6-169.7-42.4-239.1-83.2c-27.3-16.1-32.8-21.8-32.8-33.3c0-8.9,10.9-19.8,19.9-19.8
			c3.7,0,19.6,7.2,34.5,15.8c69.9,39.6,141,64.5,223.3,78c43.7,7.2,139.5,6.9,184.1-0.3c139.5-22.4,253.2-80,351.3-177.8
			c69.9-69.7,118.2-145.7,149-233.7c105.6-302.5-27.3-628.2-314.7-769.6l-41.4-20.6H2366h-235.9l-31.1,14.9
			c-68.2,32.7-121.7,70.8-174.9,123.9c-55.2,55.3-90,104.1-123.4,173.2c-72.2,149.4-82.6,312-29.9,469.4
			c31.9,96.1,83.1,176.3,159.1,250.6c19.3,18.6,36.3,36.1,37.7,39.3c4,7.2,0.6,18.9-6.6,24.1c-12.4,8.6-20.1,5.4-46.9-18.4
			c-93.5-82.9-166-203-198.2-328.6c-15.8-61.9-19.9-95.2-19.9-166.3s4-104.4,19.9-166.6c17.3-67.1,48-138.2,83.4-192.1
			c8.6-13.5,15.8-24.9,15.8-26.1c0-2-60.7-65.1-63.9-66.2c-1.2-0.6-23,18.6-48.3,42.7l-45.7,43.6l27.3,29
			c15,15.8,27.9,31.8,28.8,35.6c4,14.6-10.6,29-25.6,25.2c-4-0.9-25.6-21.2-50.1-47.3c-47.5-50.5-61.3-71.7-68.5-105.5
			c-5.8-26.7-5.5-47.6,1.2-72.8c5.8-21.5,76.8-191.2,91.5-218.2c10.1-18.4,36-45,54.1-55.6c7.5-4.3,22.2-11.2,32.8-15.2l19-7.5
			l592.1-0.9l592.1-0.6c18.6,0.3,37.1,0.7,55.7,1l0,0c-30.8,25.4-27.7,71-41.6,106.5v93.5l-7.2,6.9c-6.9,7.2-7.8,7.2-57.5,7.2
			s-50.6,0-57.5-7.2c-9.2-8.9-9.2-19.8,0-28.7c6.6-6.9,8.6-7.2,43.2-7.2h36v-64.5v-64.5h-65h-64.7v78.9v79.1l-7.2,6.9
			c-6.6,6.9-8.3,7.2-48,7.2H2697l19.9,12.3c148.5,91.2,257.5,238.3,299.8,405.2c15.8,62.5,19.6,94.9,19.6,166
			c0,71.4-3.7,104.4-19.9,166.6c-38,148-126.6,279-251.2,371c-100.4,74.6-213.5,116.7-347.3,130.2
			C2392.8,3385.3,2298.1,3381.9,2268.2,3377.3z M1626,2314.4c2.6,2,16.1-9.2,48.6-40.7l45.2-43.3l-24.2-25.8
			c-13.2-14-27-30.7-30.8-36.4c-3.7-6-8.1-10.9-9.8-10.9c-2,0-7.8,4.9-13.5,11.2c-32.2,35.6-41.7,83.2-25,127
			C1619.7,2304.3,1624,2312.9,1626,2314.4z M1842.4,2294.9c0.3,0,11.5-12.3,24.5-27.5c37.4-42.4,82.3-80.3,136.7-115.6l31.6-20.6
			l-167.4,0.9c-92.1,0.6-168.3,1.7-169.2,2.9c-4,4,10.1,20.9,76.2,90C1811.9,2263.3,1842.4,2294.9,1842.4,2294.9z M1663.1,2101.3
			c0.6,0.6,2.9,0,5.2-1.4c3.7-2.3,15.5-5.4,39.4-10.3c6.6-1.1,6.6-2,6.6-45.9c0-30.1-0.9-43.9-2.9-42.7c-6,3.7-17,24.1-33.1,61.4
			C1669.5,2083.3,1662.6,2101,1663.1,2101.3z M2620.6,2088.4h64.7h64.7v-64.5v-64.5h-64.7h-64.7v64.5V2088.4z M2448,2088.4h64.7
			h64.7v-64.5v-64.5h-64.7H2448v64.5V2088.4z M2275.4,2088.4h64.7h64.7v-64.5v-64.5h-64.7h-64.7v64.5V2088.4z M2102.8,2088.4h64.7
			h64.7v-64.5v-64.5h-64.7h-64.7v64.5V2088.4z M1930.1,2088.4h64.7h64.7v-64.5v-64.5h-64.7h-64.7v64.5L1930.1,2088.4L1930.1,2088.4z
			 M1757.5,2088.4h64.7h64.7v-64.8v-64.8l-57,1.1c-34.2,0.9-59.8,2.6-64.7,4.6l-7.8,3.4v60.2v60.3H1757.5z"/>
		<path d="M2282,3290.1c-61.6-12.6-101.6-31.5-133.5-63.4c-27.6-27.2-35.4-45-33.7-76c1.7-25.5,9.8-46.5,30.8-78
			c29.1-43.9,69-83.7,113.1-113c76.2-50.2,141.8-49.3,218.4,2.6c55.5,37.6,105,93.2,130,145.9c8.3,17.5,9.2,22.1,9.2,46.7
			c0,24.9-0.9,28.7-8.3,42.4c-12.1,21.5-42,48.5-69.3,62.8c-34.5,17.5-83.1,31.3-129.5,36.4
			C2381.8,3299.6,2310.8,3295.8,2282,3290.1z M2407.7,3253.7c65-8.3,113.6-26.7,143.3-53.9c11.8-10.9,22.4-26.7,19.9-29.2
			c-0.6-0.9-7.5,1.4-15.2,4.6c-22.7,10-75.4,24.9-106.2,30.4c-40.3,7.2-126.9,7.2-166.9,0c-32.8-6-78-18.9-103-29.2
			c-9.2-4-17.5-6.6-18.4-6c-2.6,2.6,7.5,17.8,18.4,28.1c23,21.8,59.8,39,105,48.7C2310.8,3252.6,2384.4,3256.6,2407.7,3253.7z
			 M2406.3,3167.7c60.1-8.3,93.8-16.6,130.6-31.5c13.5-5.7,25.9-11.2,27-12.3c6-5.7-29.9-54.8-64.7-88c-28.2-27-51.5-43.3-82.3-57.9
			c-21-10-23.6-10.6-50.9-10.6c-27.3,0-29.9,0.6-50.9,10.6c-30.5,14.3-53.8,30.7-80.8,56.5c-26.5,25.2-46.6,49.6-59.3,72.5
			l-9.5,16.6l16.4,7.2c26.2,11.5,66.7,24.1,97.8,30.1C2307.3,3166.2,2385.8,3170.5,2406.3,3167.7z"/>
		<path d="M2694.8,3084.5c-19.9-10-54.1-44.4-75.1-76c-28.5-43-51.8-99.2-59.8-144.5c-4.6-27.2-2-70.5,5.8-90.6
			c11.8-30.7,41.7-66.8,76.2-92c13.8-9.7,22.7-10.3,31.9-0.9c11.5,11.2,9.5,20.6-8.1,35.6c-26.8,23.5-44.3,43.3-54.1,61.4
			c-8.1,15.2-9.8,21.2-10.6,42.7c-2,39,8.6,78.6,34.2,129.3c17.3,34.4,50.6,79.7,58.4,79.1c1.7,0,10.4-8.3,19-18.6
			c51.2-60.5,85.2-131,101.3-211c5.5-26.7,6.6-41.9,6.6-85.4c0-29.2-0.9-55.1-2-57.6c-1.7-4.3-3.7-4.6-20.4-0.9
			c-10.1,2-27.3,7.2-38,11.2c-25,9.2-33.9,9.2-41.4-0.3c-10.9-13.8-5.8-27,14.7-35.6c53.8-22.9,111.1-29.2,140.7-14.9
			c26.5,12.9,47.2,39.3,59.3,76.6c9.2,28.4,12.4,87.5,6.6,128.5c-8.1,59.6-36.2,133.3-69.6,182.1c-30.8,44.7-75.1,80.3-110.5,89.5
			C2741.2,3096.6,2712.4,3093.4,2694.8,3084.5z M2759.6,3046.1c52.9-20.4,105.6-98.9,130-192.4c10.1-39.3,13.2-105.2,6-135.3
			c-5.2-22.4-15.5-43.6-25.3-52.8l-6.6-6.3l-0.3,55.1c0,39.9-1.4,63.1-5.2,83.7c-14.7,81.4-52.1,164.6-101,225.1
			c-9.8,12-18.7,23.2-19.9,25.2C2734.3,3053.3,2743.5,3052.4,2759.6,3046.1z"/>
		<path d="M1991.1,3093.4c-56.4-2.9-115.1-54.8-155.9-137.6c-18.4-37-30.8-71.7-39.1-110.4c-4.3-18.6-5.5-36.4-5.5-74.6
			c0-43.9,0.9-53,6.6-73.1c8.6-29.8,20.1-49.3,39.1-66.8c28.5-25.8,66.7-30.1,124-13.5c96.1,27.8,181.3,92.3,206,156
			c8.9,22.7,10.6,69.4,4,99.8c-22.4,100.4-90.3,199.3-151,219.1C2015.3,3093.7,2002.6,3094.3,1991.1,3093.4z M1996.3,3050.7
			c0-1.1-6.9-10-15.2-19.8c-76-89.5-119.4-218.8-113.4-338.6l1.7-34.1l-7.2,6.9c-19.3,17.8-29.9,55.1-29.9,104.7
			c0,89.7,38.8,189,96.1,245.4c10.9,10.6,26.2,22.7,34.5,26.7C1978.2,3049,1996.3,3054.1,1996.3,3050.7z M2038.6,3028.6
			c3.7,0.3,24.2-22.9,37.7-43c12.1-18.1,33.1-59.9,41.7-84.3c15.5-43.9,17.8-93.8,5.2-119.9c-22.4-45.9-89.2-94.9-163.7-119.6
			c-13.8-4.3-29.6-8.6-35.1-9.2l-10.1-0.9l-2.3,18.6c-3.5,27.8,0,97.8,6.6,130.2c15.2,76.8,50.6,150.2,100.7,209.3
			C2028,3020.3,2036.6,3028.6,2038.6,3028.6z"/>
		<path d="M2321.4,2759.4c-26.8-26.7-26.8-62.2,0-88.9s63-27,89.5-0.3c18.4,18.4,23.9,39,16.7,64.5c-4,14.3-23.9,35.3-38.6,40.4
			C2364,2784,2340.4,2778.6,2321.4,2759.4z M2366,2736.4c9.5,0,21.6-12,21.6-21.5s-12.1-21.5-21.6-21.5s-21.6,12-21.6,21.5
			c0,4,3.2,10.6,7.2,14.3C2355.4,2733.3,2362,2736.4,2366,2736.4z"/>
		<path d="M2581.8,2578.7c-53.8-6-84.6-20.1-114.8-51.6c-42-44.7-67.9-125.6-67.9-213.6c0-82.3,20.1-120.1,73.1-136.8
			c21.9-6.9,63.6-7.5,92.4-1.1c156.5,33.5,309.6,199.3,279.1,301.9c-12.9,43.9-54.7,72-134.9,91.2c-16.1,4-41.1,8.3-55.2,9.7
			C2616.9,2581.9,2610.8,2581.9,2581.8,2578.7z M2700.6,2527.1c25.9-6.3,66.7-22.1,66.7-25.8c0-4.9-20.4-37.3-37.4-59.9
			c-61.6-81.1-152.5-141.4-250.6-166.3c-27.9-6.9-33.1-7.5-35.1-4c-1.4,2.3-2.6,20.6-2.6,40.7c0,96.6,35.4,183.5,84.6,208.5
			c7.5,3.7,21.9,8.9,31.6,11.2C2597.3,2540.3,2651.4,2538.9,2700.6,2527.1z M2781.7,2440.2c16.7,25.2,19.9,28.4,21.3,22.9
			c4.9-18.1-4.3-53.6-21.3-82.6c-65.3-110.1-233.9-197-308.1-158.6l-9.5,4.9l21.6,5.2c97.8,24.7,189.3,79.7,253.5,153.1
			C2751.8,2399.2,2770.8,2424.2,2781.7,2440.2z"/>
		<path d="M1999.2,2562.7c-33.1-10-55.5-20.6-76.5-36.4c-62.1-45.9-46-141.4,39.1-229.7c38-39.6,77.4-68.8,122.3-91.2
			c107-53.3,208.3-43.9,236.2,22.1c19.9,47.9,17.3,138.5-6.3,210.2c-16.1,49-36,81.4-64.7,105.5c-22.2,18.4-54.7,30.7-94.7,35.3
			C2112.2,2583.6,2046.7,2577,1999.2,2562.7z M2206.6,2520c37.4-18.9,69-78.9,80.3-152c4-24.7,4.9-84.9,1.7-94.9
			c-1.7-6-2.3-6-19.9-2c-121.7,27.2-227.3,102.4-292.3,208.2c-6.3,10.6-11.8,20.4-11.8,21.8c0,4,40.6,19.8,66.7,26.1
			c13.2,2.9,37.4,6.9,53.8,8.6C2136.4,2540.9,2175,2535.7,2206.6,2520z M1929,2460.9l2.6,8.6l15-23.5
			c64.4-102.1,174.6-181.5,294.6-212.5l26.8-6.9l-9.5-4.6c-15.2-8-39.4-10.6-65-7.2c-112.8,14.9-246.3,126.4-263.8,219.9
			C1927.5,2446,1927.3,2455.2,1929,2460.9z"/>
	</g>
	<path class="st0" d="M310.5,318.1h-11.6c-1.5,0-2.8-1.2-2.8-2.8V304c0-1.5,1.2-2.8,2.8-2.8h11.6c1.5,0,2.8,1.2,2.8,2.8v11.3
		C313.3,316.8,312.1,318.1,310.5,318.1z"/>
	<path d="M300.6,324.1"/>
	<path class="st1" d="M294.2,298.9"/>
	<rect x="294.7" y="299.5" class="st2" width="5.7" height="1.7"/>
	<path class="st3" d="M297.5,303.2v12.6c0,0.2,0.1,0.3,0.3,0.3h13.3v-12.9H297.5z"/>
	<path class="st0" d="M330.9,301.2h-16c-0.3,0-0.6,0.3-0.6,0.6v15.7c0,0.3,0.3,0.6,0.6,0.6h16c0.3,0,0.6-0.3,0.6-0.6v-15.7
		C331.5,301.4,331.2,301.2,330.9,301.2z"/>
	<rect x="310.7" y="299.5" class="st2" width="5.7" height="1.7"/>
	<rect x="310.8" y="318" class="st4" width="6.5" height="1.7"/>
	<rect x="327.1" y="318" class="st4" width="6.5" height="1.7"/>
	<g>
		<polygon class="st5" points="345.8,316.1 332.9,316.1 332.9,303.8 330.3,303.8 330.3,319.8 348.8,319.8 348.8,303.8 345.8,303.8 
					"/>
		<path class="st5" d="M347,299.5h-9c-1,0-1.8,0.8-1.8,1.8l0,0c0,1,0.8,1.8,1.8,1.8h8.9c0.2,0,0.4,0,0.6-0.1v-1.7h1.2l0,0
			C348.8,300.3,348,299.5,347,299.5z"/>
		<path class="st5" d="M347.6,303v0.1h1.2v-1.8C348.8,302.1,348.3,302.8,347.6,303z"/>
	</g>
</g>
<text transform="matrix(1 0 0 1 14.1548 298.7422)" class="st6 st7 st8">M</text>
<text transform="matrix(1 0 0 1 298.7367 298.8855)" class="st6 st7 st9">VIE</text>
</svg>
