<svg width="559" height="216" viewBox="0 0 559 216" fill="none" xmlns="http://www.w3.org/2000/svg">
<path d="M212.82 54.27C204.45 55.53 195.85 58.51 188.91 62.59C186.18 64.2 185.63 64.77 185.63 65.92C185.63 66.81 186.72 67.9 187.62 67.9C187.99 67.9 189.58 67.18 191.07 66.32C198.06 62.36 205.17 59.87 213.4 58.52C217.77 57.8 227.35 57.83 231.81 58.55C245.76 60.79 257.13 66.55 266.94 76.33C273.93 83.3 278.76 90.9 281.84 99.7C292.4 129.95 279.11 162.52 250.37 176.66L246.23 178.72H222.6H199.01L195.9 177.23C189.08 173.96 183.73 170.15 178.41 164.84C172.89 159.31 169.41 154.43 166.07 147.52C158.85 132.58 157.81 116.32 163.08 100.58C166.27 90.97 171.39 82.95 178.99 75.52C180.92 73.66 182.62 71.91 182.76 71.59C183.16 70.87 182.82 69.7 182.1 69.18C180.86 68.32 180.09 68.64 177.41 71.02C168.06 79.31 160.81 91.32 157.59 103.88C156.01 110.07 155.6 113.4 155.6 120.51C155.6 127.62 156 130.95 157.59 137.17C159.32 143.88 162.39 150.99 165.93 156.38C166.79 157.73 167.51 158.87 167.51 158.99C167.51 159.19 161.44 165.5 161.12 165.61C161 165.67 158.82 163.75 156.29 161.34L151.72 156.98L154.45 154.08C155.95 152.5 157.24 150.9 157.33 150.52C157.73 149.06 156.27 147.62 154.77 148C154.37 148.09 152.21 150.12 149.76 152.73C145.01 157.78 143.63 159.9 142.91 163.28C142.33 165.95 142.36 168.04 143.03 170.56C143.61 172.71 150.71 189.68 152.18 192.38C153.19 194.22 155.78 196.88 157.59 197.94C158.34 198.37 159.81 199.06 160.87 199.46L162.77 200.21L221.98 200.3L281.19 200.36C283.05 200.33 284.9 200.29 286.76 200.26C283.68 197.72 283.99 193.16 282.6 189.61V180.26L281.88 179.57C281.19 178.85 281.1 178.85 276.13 178.85C271.16 178.85 271.07 178.85 270.38 179.57C269.46 180.46 269.46 181.55 270.38 182.44C271.04 183.13 271.24 183.16 274.7 183.16H278.3V189.61V196.06H271.8H265.33V188.17V180.26L264.61 179.57C263.95 178.88 263.78 178.85 259.81 178.85H255.7L257.69 177.62C272.54 168.5 283.44 153.79 287.67 137.1C289.25 130.85 289.63 127.61 289.63 120.5C289.63 113.36 289.26 110.06 287.64 103.84C283.84 89.04 274.98 75.94 262.52 66.74C252.48 59.28 241.17 55.07 227.79 53.72C225.28 53.47 215.81 53.81 212.82 54.27ZM148.6 160.56C148.86 160.36 150.21 161.48 153.46 164.63L157.98 168.96L155.56 171.54C154.24 172.94 152.86 174.61 152.48 175.18C152.11 175.78 151.67 176.27 151.5 176.27C151.3 176.27 150.72 175.78 150.15 175.15C146.93 171.59 145.98 166.83 147.65 162.45C147.97 161.57 148.4 160.71 148.6 160.56ZM170.24 162.51C170.27 162.51 171.39 163.74 172.69 165.26C176.43 169.5 180.92 173.29 186.36 176.82L189.52 178.88L172.78 178.79C163.57 178.73 155.95 178.62 155.86 178.5C155.46 178.1 156.87 176.41 163.48 169.5C167.19 165.67 170.24 162.51 170.24 162.51ZM152.31 181.87C152.37 181.81 152.6 181.87 152.83 182.01C153.2 182.24 154.38 182.55 156.77 183.04C157.43 183.15 157.43 183.24 157.43 187.63C157.43 190.64 157.34 192.02 157.14 191.9C156.54 191.53 155.44 189.49 153.83 185.76C152.95 183.67 152.26 181.9 152.31 181.87ZM248.06 183.16H254.53H261V189.61V196.06H254.53H248.06V189.61V183.16ZM230.8 183.16H237.27H243.74V189.61V196.06H237.27H230.8V189.61V183.16ZM213.54 183.16H220.01H226.48V189.61V196.06H220.01H213.54V189.61V183.16ZM196.28 183.16H202.75H209.22V189.61V196.06H202.75H196.28V189.61V183.16ZM179.01 183.16H185.48H191.95V189.61V196.06H185.48H179.01V189.61V183.16ZM161.75 183.16H168.22H174.69V189.64V196.12L168.99 196.01C165.57 195.92 163.01 195.75 162.52 195.55L161.74 195.21V189.19V183.16H161.75Z" fill="black"/>
<path d="M214.2 62.99C208.04 64.25 204.04 66.14 200.85 69.33C198.09 72.05 197.31 73.83 197.48 76.93C197.65 79.48 198.46 81.58 200.56 84.73C203.47 89.12 207.46 93.1 211.87 96.03C219.49 101.05 226.05 100.96 233.71 95.77C239.26 92.01 244.21 86.45 246.71 81.18C247.54 79.43 247.63 78.97 247.63 76.51C247.63 74.02 247.54 73.64 246.8 72.27C245.59 70.12 242.6 67.42 239.87 65.99C236.42 64.24 231.56 62.86 226.92 62.35C224.18 62.04 217.08 62.42 214.2 62.99ZM226.77 66.63C233.27 67.46 238.13 69.3 241.1 72.02C242.28 73.11 243.34 74.69 243.09 74.94C243.03 75.03 242.34 74.8 241.57 74.48C239.3 73.48 234.03 71.99 230.95 71.44C226.92 70.72 218.26 70.72 214.26 71.44C210.98 72.04 206.46 73.33 203.96 74.36C203.04 74.76 202.21 75.02 202.12 74.96C201.86 74.7 202.87 73.18 203.96 72.15C206.26 69.97 209.94 68.25 214.46 67.28C217.08 66.74 224.44 66.34 226.77 66.63ZM226.63 75.23C232.64 76.06 236.01 76.89 239.69 78.38C241.04 78.95 242.28 79.5 242.39 79.61C242.99 80.18 239.4 85.09 235.92 88.41C233.1 91.11 230.77 92.74 227.69 94.2C225.59 95.2 225.33 95.26 222.6 95.26C219.87 95.26 219.61 95.2 217.51 94.2C214.46 92.77 212.13 91.13 209.43 88.55C206.78 86.03 204.77 83.59 203.5 81.3L202.55 79.64L204.19 78.92C206.81 77.77 210.86 76.51 213.97 75.91C216.73 75.38 224.58 74.95 226.63 75.23Z" fill="black"/>
<path d="M255.48 83.55C253.49 84.55 250.07 87.99 247.97 91.15C245.12 95.45 242.79 101.07 241.99 105.6C241.53 108.32 241.79 112.65 242.57 114.66C243.75 117.73 246.74 121.34 250.19 123.86C251.57 124.83 252.46 124.89 253.38 123.95C254.53 122.83 254.33 121.89 252.57 120.39C249.89 118.04 248.14 116.06 247.16 114.25C246.35 112.73 246.18 112.13 246.1 109.98C245.9 106.08 246.96 102.12 249.52 97.05C251.25 93.61 254.58 89.08 255.36 89.14C255.53 89.14 256.4 89.97 257.26 91C262.38 97.05 265.78 104.1 267.39 112.1C267.94 114.77 268.05 116.29 268.05 120.64C268.05 123.56 267.96 126.15 267.85 126.4C267.68 126.83 267.48 126.86 265.81 126.49C264.8 126.29 263.08 125.77 262.01 125.37C259.51 124.45 258.62 124.45 257.87 125.4C256.78 126.78 257.29 128.1 259.34 128.96C264.72 131.25 270.45 131.88 273.41 130.45C276.06 129.16 278.13 126.52 279.34 122.79C280.26 119.95 280.58 114.04 280 109.94C279.19 103.98 276.38 96.61 273.04 91.73C269.96 87.26 265.53 83.7 261.99 82.78C260.12 82.34 257.24 82.66 255.48 83.55ZM261.96 87.39C267.25 89.43 272.52 97.28 274.96 106.63C275.97 110.56 276.28 117.15 275.56 120.16C275.04 122.4 274.01 124.52 273.03 125.44L272.37 126.07L272.34 120.56C272.34 116.57 272.2 114.25 271.82 112.19C270.35 104.05 266.61 95.73 261.72 89.68C260.74 88.48 259.85 87.36 259.73 87.16C259.43 86.67 260.35 86.76 261.96 87.39Z" fill="black"/>
<path d="M185.11 82.66C179.47 82.95 173.6 88.14 169.52 96.42C167.68 100.12 166.44 103.59 165.61 107.46C165.18 109.32 165.06 111.1 165.06 114.92C165.06 119.31 165.15 120.22 165.72 122.23C166.58 125.21 167.73 127.16 169.63 128.91C172.48 131.49 176.3 131.92 182.03 130.26C191.64 127.48 200.16 121.03 202.63 114.66C203.52 112.39 203.69 107.72 203.03 104.68C200.79 94.64 194 84.75 187.93 82.77C187.53 82.63 186.26 82.57 185.11 82.66ZM185.63 86.93C185.63 87.04 184.94 87.93 184.11 88.91C176.51 97.86 172.17 110.79 172.77 122.77L172.94 126.18L172.22 125.49C170.29 123.71 169.23 119.98 169.23 115.02C169.23 106.05 173.11 96.12 178.84 90.48C179.93 89.42 181.46 88.21 182.29 87.81C183.82 87.1 185.63 86.59 185.63 86.93ZM189.86 89.14C190.23 89.11 192.28 91.43 193.63 93.44C194.84 95.25 196.94 99.43 197.8 101.87C199.35 106.26 199.58 111.25 198.32 113.86C196.08 118.45 189.4 123.35 181.95 125.82C180.57 126.25 178.99 126.68 178.44 126.74L177.43 126.83L177.2 124.97C176.85 122.19 177.2 115.19 177.86 111.95C179.38 104.27 182.92 96.93 187.93 91.02C188.8 89.97 189.66 89.14 189.86 89.14Z" fill="black"/>
<path d="M218.14 116.06C215.46 118.73 215.46 122.28 218.14 124.95C220.82 127.62 224.44 127.65 227.09 124.98C228.93 123.14 229.48 121.08 228.76 118.53C228.36 117.1 226.37 115 224.9 114.49C222.4 113.6 220.04 114.14 218.14 116.06ZM222.6 118.36C223.55 118.36 224.76 119.56 224.76 120.51C224.76 121.46 223.55 122.66 222.6 122.66C221.65 122.66 220.44 121.46 220.44 120.51C220.44 120.11 220.76 119.45 221.16 119.08C221.54 118.67 222.2 118.36 222.6 118.36Z" fill="black"/>
<path d="M244.18 134.13C238.8 134.73 235.72 136.14 232.7 139.29C228.5 143.76 225.91 151.85 225.91 160.65C225.91 168.88 227.92 172.66 233.22 174.33C235.41 175.02 239.58 175.08 242.46 174.44C258.11 171.09 273.42 154.51 270.37 144.25C269.08 139.86 264.9 137.05 256.88 135.13C255.27 134.73 252.77 134.3 251.36 134.16C247.69 133.81 247.08 133.81 244.18 134.13ZM256.06 139.29C258.65 139.92 262.73 141.5 262.73 141.87C262.73 142.36 260.69 145.6 258.99 147.86C252.83 155.97 243.74 162 233.93 164.49C231.14 165.18 230.62 165.24 230.42 164.89C230.28 164.66 230.16 162.83 230.16 160.82C230.16 151.16 233.7 142.47 238.62 139.97C239.37 139.6 240.81 139.08 241.78 138.85C245.73 137.97 251.14 138.11 256.06 139.29ZM264.17 147.98C265.84 145.46 266.16 145.14 266.3 145.69C266.79 147.5 265.87 151.05 264.17 153.95C257.64 164.96 240.78 173.65 233.36 169.81L232.41 169.32L234.57 168.8C244.35 166.33 253.5 160.83 259.92 153.49C261.18 152.08 263.08 149.58 264.17 147.98Z" fill="black"/>
<path d="M185.92 135.73C182.61 136.73 180.37 137.79 178.27 139.37C172.06 143.96 173.67 153.51 182.18 162.34C185.98 166.3 189.92 169.22 194.41 171.46C205.11 176.79 215.24 175.85 218.03 169.25C220.02 164.46 219.76 155.4 217.4 148.23C215.79 143.33 213.8 140.09 210.93 137.68C208.71 135.84 205.46 134.61 201.46 134.15C197.22 133.64 190.67 134.3 185.92 135.73ZM206.66 140C210.4 141.89 213.56 147.89 214.69 155.2C215.09 157.67 215.18 163.69 214.86 164.69C214.69 165.29 214.63 165.29 212.87 164.89C200.7 162.17 190.14 154.65 183.64 144.07C183.01 143.01 182.46 142.03 182.46 141.89C182.46 141.49 186.52 139.91 189.13 139.28C190.45 138.99 192.87 138.59 194.51 138.42C199.64 137.91 203.5 138.43 206.66 140ZM178.9 145.91L179.16 145.05L180.66 147.4C187.1 157.61 198.12 165.55 210.12 168.65L212.8 169.34L211.85 169.8C210.33 170.6 207.91 170.86 205.35 170.52C194.07 169.03 180.72 157.88 178.97 148.53C178.75 147.4 178.73 146.48 178.9 145.91Z" fill="black"/>
<path d="M296.5 198.1H284.9C283.4 198.1 282.1 196.9 282.1 195.3V184C282.1 182.5 283.3 181.2 284.9 181.2H296.5C298 181.2 299.3 182.4 299.3 184V195.3C299.3 196.8 298.1 198.1 296.5 198.1Z" stroke="black" stroke-width="4.3734" stroke-miterlimit="10"/>
<path d="M286.4 179.5H280.7V181.2H286.4V179.5Z" fill="black" stroke="black" stroke-width="1.0273" stroke-miterlimit="10"/>
<path d="M316.9 181.2H300.9C300.6 181.2 300.3 181.5 300.3 181.8V197.5C300.3 197.8 300.6 198.1 300.9 198.1H316.9C317.2 198.1 317.5 197.8 317.5 197.5V181.8C317.5 181.4 317.2 181.2 316.9 181.2Z" stroke="black" stroke-width="4.3734" stroke-miterlimit="10"/>
<path d="M302.4 179.5H296.7V181.2H302.4V179.5Z" fill="black" stroke="black" stroke-width="1.0273" stroke-miterlimit="10"/>
<path d="M303.3 198H296.8V199.7H303.3V198Z" fill="black" stroke="black" stroke-width="1.0966" stroke-miterlimit="10"/>
<path d="M319.6 198H313.1V199.7H319.6V198Z" fill="black" stroke="black" stroke-width="1.0966" stroke-miterlimit="10"/>
<path d="M331.8 196.1H318.9V183.8H316.3V199.8H334.8V183.8H331.8V196.1Z" fill="black" stroke="black" stroke-width="1.0524" stroke-miterlimit="10"/>
<path d="M333 179.5H324C323 179.5 322.2 180.3 322.2 181.3C322.2 182.3 323 183.1 324 183.1H332.9C333.1 183.1 333.3 183.1 333.5 183V181.3H334.7C334.8 180.3 334 179.5 333 179.5Z" fill="black" stroke="black" stroke-width="1.0524" stroke-miterlimit="10"/>
<path d="M333.6 183V183.1H334.8V181.3C334.8 182.1 334.3 182.8 333.6 183Z" fill="black" stroke="black" stroke-width="1.0524" stroke-miterlimit="10"/>
<path d="M15.6675 45.4931H34.1826L77.7183 151.83H79.2195L122.755 45.4931H141.27V173.598H126.758V76.2683H125.507L85.4746 173.598H71.4632L31.4304 76.2683H30.1794V173.598H15.6675V45.4931Z" fill="black"/>
<path d="M305.721 43.4455L344.152 152.415H345.668L384.098 43.4455H400.532L353.001 172.894H336.819L289.288 43.4455H305.721ZM436.371 43.4455V172.894H420.695V43.4455H436.371ZM467.801 172.894V43.4455H545.925V57.351H483.476V101.09H541.88V114.996H483.476V158.988H546.936V172.894H467.801Z" fill="black"/>
</svg>
